<svg width="113.925" height="18.8" viewBox="0 0 113.925 18.8" xmlns="http://www.w3.org/2000/svg"><g id="svgGroup" stroke-linecap="round" fill-rule="nonzero" font-size="9pt" stroke="#000" stroke-width="0.25mm" fill="#000" style="stroke:#000;stroke-width:0.25mm;fill:#000"><path d="M 71.85 18.5 L 69.475 18.5 L 69.475 1 L 71.85 1 L 71.85 8.475 L 80.475 8.475 L 80.475 1 L 82.85 1 L 82.85 18.5 L 80.475 18.5 L 80.475 10.525 L 71.85 10.525 L 71.85 18.5 Z M 86.975 13.95 L 86.975 5.5 L 89.225 5.5 L 89.225 13.65 Q 89.225 14.667 89.514 15.367 A 2.534 2.534 0 0 0 89.875 15.987 A 2.101 2.101 0 0 0 91.153 16.743 A 3.202 3.202 0 0 0 91.775 16.8 Q 92.8 16.8 93.763 16.388 Q 94.725 15.975 95.475 15.275 L 95.475 5.5 L 97.725 5.5 L 97.725 15.125 A 3.9 3.9 0 0 0 97.75 15.588 Q 97.833 16.279 98.188 16.538 Q 98.65 16.875 99.2 16.875 L 98.725 18.625 Q 96.4 18.625 95.85 16.775 Q 94.975 17.675 93.825 18.238 Q 92.675 18.8 91.35 18.8 Q 90.225 18.8 89.225 18.325 A 3.61 3.61 0 0 1 87.848 17.165 A 4.567 4.567 0 0 1 87.6 16.788 Q 87.11 15.955 87.004 14.686 A 8.843 8.843 0 0 1 86.975 13.95 Z M 8.875 18.5 L 6.625 18.5 L 6.625 5.5 L 8.8 5.5 L 8.8 7.675 Q 9.5 6.625 10.588 5.913 A 4.329 4.329 0 0 1 12.364 5.256 A 5.657 5.657 0 0 1 13.175 5.2 A 5.806 5.806 0 0 1 14.441 5.329 Q 15.277 5.516 15.886 5.973 A 3.315 3.315 0 0 1 16.462 6.525 A 4.601 4.601 0 0 1 17.364 8.37 Q 17.527 9.03 17.547 9.802 A 8.441 8.441 0 0 1 17.55 10.025 L 17.55 18.5 L 15.3 18.5 L 15.3 10.275 Q 15.3 9.127 14.855 8.349 A 2.741 2.741 0 0 0 14.638 8.025 A 2.145 2.145 0 0 0 13.068 7.187 A 3.015 3.015 0 0 0 12.8 7.175 A 3.28 3.28 0 0 0 11.088 7.666 A 4.338 4.338 0 0 0 10.625 7.988 Q 9.6 8.8 8.875 9.9 L 8.875 18.5 Z M 56.675 18.5 L 54.425 18.5 L 54.425 5.5 L 56.6 5.5 L 56.6 7.675 Q 57.3 6.625 58.388 5.913 A 4.329 4.329 0 0 1 60.164 5.256 A 5.657 5.657 0 0 1 60.975 5.2 A 5.806 5.806 0 0 1 62.241 5.329 Q 63.077 5.516 63.686 5.973 A 3.315 3.315 0 0 1 64.262 6.525 A 4.601 4.601 0 0 1 65.164 8.37 Q 65.327 9.03 65.347 9.802 A 8.441 8.441 0 0 1 65.35 10.025 L 65.35 18.5 L 63.1 18.5 L 63.1 10.275 Q 63.1 9.127 62.655 8.349 A 2.741 2.741 0 0 0 62.438 8.025 A 2.145 2.145 0 0 0 60.868 7.187 A 3.015 3.015 0 0 0 60.6 7.175 A 3.28 3.28 0 0 0 58.888 7.666 A 4.338 4.338 0 0 0 58.425 7.988 Q 57.4 8.8 56.675 9.9 L 56.675 18.5 Z M 104.3 17.425 L 104.3 18.5 L 102.2 18.5 L 102.2 0 L 104.45 0 L 104.45 6.85 A 3.878 3.878 0 0 1 104.922 6.398 Q 105.176 6.19 105.494 5.987 A 8.329 8.329 0 0 1 105.912 5.737 A 4.146 4.146 0 0 1 107.22 5.282 A 5.606 5.606 0 0 1 108.2 5.2 Q 109.7 5.2 111.013 5.987 A 5.582 5.582 0 0 1 112.807 7.729 A 6.866 6.866 0 0 1 113.125 8.263 A 6.421 6.421 0 0 1 113.749 10.023 Q 113.925 10.879 113.925 11.875 A 8.329 8.329 0 0 1 113.753 13.597 A 6.937 6.937 0 0 1 113.425 14.7 A 7.342 7.342 0 0 1 112.635 16.201 A 6.371 6.371 0 0 1 112.087 16.887 A 6.224 6.224 0 0 1 110.555 18.116 A 5.826 5.826 0 0 1 110.2 18.3 A 5.001 5.001 0 0 1 108.358 18.79 A 4.802 4.802 0 0 1 108.05 18.8 Q 106.925 18.8 105.938 18.388 A 7.569 7.569 0 0 1 105.112 17.985 Q 104.655 17.726 104.3 17.425 Z M 104.45 8.85 L 104.45 15.8 A 4.498 4.498 0 0 0 105.357 16.346 A 5.45 5.45 0 0 0 105.8 16.525 A 4.865 4.865 0 0 0 107.341 16.799 A 5.511 5.511 0 0 0 107.45 16.8 A 4.248 4.248 0 0 0 108.704 16.621 A 3.687 3.687 0 0 0 109.613 16.2 Q 110.55 15.6 111.088 14.5 A 5.217 5.217 0 0 0 111.549 12.988 A 6.869 6.869 0 0 0 111.625 11.95 Q 111.625 10.503 111.125 9.452 A 4.335 4.335 0 0 0 111.087 9.375 Q 110.55 8.3 109.663 7.725 Q 108.775 7.15 107.7 7.15 Q 106.625 7.15 105.763 7.688 Q 104.9 8.225 104.45 8.85 Z M 41.375 12.925 L 32.275 12.925 A 6.022 6.022 0 0 0 32.56 14.181 Q 32.857 15.03 33.41 15.631 A 3.745 3.745 0 0 0 33.55 15.775 A 3.536 3.536 0 0 0 35.456 16.728 A 5.005 5.005 0 0 0 36.325 16.8 Q 37.45 16.8 38.35 16.563 Q 39.25 16.325 40.075 15.95 L 40.6 17.875 A 10.192 10.192 0 0 1 39.516 18.281 A 12.966 12.966 0 0 1 38.575 18.538 Q 37.45 18.8 36.05 18.8 Q 33.25 18.8 31.613 17.013 A 5.88 5.88 0 0 1 30.311 14.628 Q 30.059 13.753 29.996 12.712 A 11.781 11.781 0 0 1 29.975 12 A 8.84 8.84 0 0 1 30.183 10.045 A 7.21 7.21 0 0 1 30.712 8.512 A 6.16 6.16 0 0 1 31.967 6.742 A 5.722 5.722 0 0 1 32.775 6.087 A 5.262 5.262 0 0 1 35.34 5.22 A 6.551 6.551 0 0 1 35.85 5.2 A 7.138 7.138 0 0 1 37.218 5.324 Q 38.054 5.487 38.721 5.865 A 4.303 4.303 0 0 1 38.962 6.013 Q 40.2 6.825 40.825 8.2 A 7.046 7.046 0 0 1 41.432 10.666 A 8.359 8.359 0 0 1 41.45 11.225 A 18.801 18.801 0 0 1 41.377 12.899 A 17.613 17.613 0 0 1 41.375 12.925 Z M 32.25 11.1 L 39.375 11.1 A 6.089 6.089 0 0 0 39.274 9.954 Q 39.065 8.866 38.425 8.175 A 3.122 3.122 0 0 0 36.685 7.231 A 4.599 4.599 0 0 0 35.8 7.15 A 3.395 3.395 0 0 0 34.522 7.384 A 3.131 3.131 0 0 0 33.4 8.162 A 3.791 3.791 0 0 0 32.665 9.335 Q 32.454 9.85 32.338 10.48 A 8.005 8.005 0 0 0 32.25 11.1 Z M 21.925 14.025 L 21.925 7.925 L 19.675 7.925 L 19.675 5.975 L 21.975 5.975 L 22.45 1.875 L 24.175 1.875 L 24.175 5.975 L 27.775 5.975 L 27.775 7.925 L 24.175 7.925 L 24.175 14.2 Q 24.175 15.485 24.656 16.083 A 1.389 1.389 0 0 0 24.788 16.225 Q 25.4 16.8 26.25 16.8 Q 26.875 16.8 27.438 16.6 A 6.433 6.433 0 0 0 28.232 16.258 A 5.692 5.692 0 0 0 28.475 16.125 L 29.1 17.925 A 4.637 4.637 0 0 1 28.695 18.139 Q 28.295 18.328 27.75 18.513 Q 26.9 18.8 25.975 18.8 A 5.649 5.649 0 0 1 25.946 18.8 Q 25.236 18.796 24.64 18.614 A 3.481 3.481 0 0 1 23.013 17.562 A 4.029 4.029 0 0 1 22.205 16.087 Q 22.015 15.479 21.954 14.745 A 8.694 8.694 0 0 1 21.925 14.025 Z M 46.7 18.5 L 44.45 18.5 L 44.45 5.5 L 46.625 5.5 L 46.625 8.325 Q 46.95 7.5 47.5 6.788 Q 48.05 6.075 48.875 5.637 A 3.704 3.704 0 0 1 50.045 5.257 A 4.865 4.865 0 0 1 50.8 5.2 Q 51.175 5.2 51.55 5.237 Q 51.833 5.266 52.045 5.316 A 2.204 2.204 0 0 1 52.175 5.35 L 51.5 7.675 Q 51.047 7.484 50.434 7.475 A 4.148 4.148 0 0 0 50.375 7.475 Q 49.45 7.475 48.613 8 Q 47.775 8.525 47.238 9.625 A 4.83 4.83 0 0 0 46.87 10.702 Q 46.754 11.223 46.717 11.832 A 9.772 9.772 0 0 0 46.7 12.425 L 46.7 18.5 Z M 2.375 18.5 L 0 18.5 L 0 1 L 2.375 1 L 2.375 18.5 Z"/></g></svg>